<svg xmlns="http://www.w3.org/2000/svg" viewBox="0 0 720 340" font-family="system-ui,-apple-system,sans-serif">
<rect width="720" height="340" fill="#1a1a2e" rx="12"/>
<text x="360" y="32" fill="#e0e0e0" font-size="16" font-weight="bold" text-anchor="middle">7. KV Cache Quantization + TurboQuant</text>
<text x="360" y="50" fill="#888" font-size="11" text-anchor="middle">Prefill and generation time across KV cache types</text>
<line x1="60" y1="280" x2="680" y2="280" stroke="#333" stroke-width="0.5"/>
<text x="55" y="283" fill="#666" font-size="9" text-anchor="end">0ms</text>
<line x1="60" y1="245" x2="680" y2="245" stroke="#333" stroke-width="0.5"/>
<text x="55" y="248" fill="#666" font-size="9" text-anchor="end">20ms</text>
<line x1="60" y1="211" x2="680" y2="211" stroke="#333" stroke-width="0.5"/>
<text x="55" y="214" fill="#666" font-size="9" text-anchor="end">40ms</text>
<line x1="60" y1="176" x2="680" y2="176" stroke="#333" stroke-width="0.5"/>
<text x="55" y="179" fill="#666" font-size="9" text-anchor="end">60ms</text>
<line x1="60" y1="142" x2="680" y2="142" stroke="#333" stroke-width="0.5"/>
<text x="55" y="145" fill="#666" font-size="9" text-anchor="end">80ms</text>
<line x1="60" y1="107" x2="680" y2="107" stroke="#333" stroke-width="0.5"/>
<text x="55" y="110" fill="#666" font-size="9" text-anchor="end">100ms</text>
<rect x="89.5" y="187.6" width="25.0" height="92.4" fill="#4C78A8" rx="3" opacity="0.9"/>
<text x="102.0" y="183.6" fill="#ccc" font-size="9" text-anchor="middle">53</text>
<rect x="117.5" y="187.5" width="25.0" height="92.5" fill="#72B7B2" rx="3" opacity="0.9"/>
<text x="130.0" y="183.5" fill="#ccc" font-size="9" text-anchor="middle">54</text>
<rect x="145.5" y="115.1" width="25.0" height="164.9" fill="#F58518" rx="3" opacity="0.9"/>
<text x="158.0" y="111.1" fill="#ccc" font-size="9" text-anchor="middle">95</text>
<text x="130.0" y="296.0" fill="#aaa" font-size="10" text-anchor="middle">F16</text>
<rect x="189.5" y="188.9" width="25.0" height="91.1" fill="#4C78A8" rx="3" opacity="0.9"/>
<text x="202.0" y="184.9" fill="#ccc" font-size="9" text-anchor="middle">53</text>
<rect x="217.5" y="188.5" width="25.0" height="91.5" fill="#72B7B2" rx="3" opacity="0.9"/>
<text x="230.0" y="184.5" fill="#ccc" font-size="9" text-anchor="middle">53</text>
<rect x="245.5" y="107.6" width="25.0" height="172.4" fill="#F58518" rx="3" opacity="0.9"/>
<text x="258.0" y="103.6" fill="#ccc" font-size="9" text-anchor="middle">100</text>
<text x="230.0" y="296.0" fill="#aaa" font-size="10" text-anchor="middle">Q8+turbo</text>
<rect x="289.5" y="187.3" width="25.0" height="92.7" fill="#4C78A8" rx="3" opacity="0.9"/>
<text x="302.0" y="183.3" fill="#ccc" font-size="9" text-anchor="middle">54</text>
<rect x="317.5" y="187.1" width="25.0" height="92.9" fill="#72B7B2" rx="3" opacity="0.9"/>
<text x="330.0" y="183.1" fill="#ccc" font-size="9" text-anchor="middle">54</text>
<rect x="345.5" y="115.2" width="25.0" height="164.8" fill="#F58518" rx="3" opacity="0.9"/>
<text x="358.0" y="111.2" fill="#ccc" font-size="9" text-anchor="middle">95</text>
<text x="330.0" y="296.0" fill="#aaa" font-size="10" text-anchor="middle">Q5+turbo</text>
<rect x="389.5" y="188.2" width="25.0" height="91.8" fill="#4C78A8" rx="3" opacity="0.9"/>
<text x="402.0" y="184.2" fill="#ccc" font-size="9" text-anchor="middle">53</text>
<rect x="417.5" y="188.1" width="25.0" height="91.9" fill="#72B7B2" rx="3" opacity="0.9"/>
<text x="430.0" y="184.1" fill="#ccc" font-size="9" text-anchor="middle">53</text>
<rect x="445.5" y="115.8" width="25.0" height="164.2" fill="#F58518" rx="3" opacity="0.9"/>
<text x="458.0" y="111.8" fill="#ccc" font-size="9" text-anchor="middle">95</text>
<text x="430.0" y="296.0" fill="#aaa" font-size="10" text-anchor="middle">Q4+turbo</text>
<rect x="489.5" y="189.0" width="25.0" height="91.0" fill="#4C78A8" rx="3" opacity="0.9"/>
<text x="502.0" y="185.0" fill="#ccc" font-size="9" text-anchor="middle">53</text>
<rect x="517.5" y="188.9" width="25.0" height="91.1" fill="#72B7B2" rx="3" opacity="0.9"/>
<text x="530.0" y="184.9" fill="#ccc" font-size="9" text-anchor="middle">53</text>
<rect x="545.5" y="124.9" width="25.0" height="155.1" fill="#F58518" rx="3" opacity="0.9"/>
<text x="558.0" y="120.9" fill="#ccc" font-size="9" text-anchor="middle">90</text>
<text x="530.0" y="296.0" fill="#aaa" font-size="10" text-anchor="middle">Q5 no-t</text>
<rect x="589.5" y="187.2" width="25.0" height="92.8" fill="#4C78A8" rx="3" opacity="0.9"/>
<text x="602.0" y="183.2" fill="#ccc" font-size="9" text-anchor="middle">54</text>
<rect x="617.5" y="187.0" width="25.0" height="93.0" fill="#72B7B2" rx="3" opacity="0.9"/>
<text x="630.0" y="183.0" fill="#ccc" font-size="9" text-anchor="middle">54</text>
<rect x="645.5" y="125.3" width="25.0" height="154.7" fill="#F58518" rx="3" opacity="0.9"/>
<text x="658.0" y="121.3" fill="#ccc" font-size="9" text-anchor="middle">90</text>
<text x="630.0" y="296.0" fill="#aaa" font-size="10" text-anchor="middle">Q4 no-t</text>
<rect x="80" y="300" width="12" height="12" fill="#4C78A8" rx="2"/>
<text x="96" y="310" fill="#ccc" font-size="11">Prefill</text>
<rect x="80" y="318" width="12" height="12" fill="#72B7B2" rx="2"/>
<text x="96" y="328" fill="#ccc" font-size="11">TTFT</text>
<rect x="200" y="300" width="12" height="12" fill="#F58518" rx="2"/>
<text x="216" y="310" fill="#ccc" font-size="11">Gen 16 tokens</text>
</svg>
